<svg width="18" height="20" viewBox="0 0 18 20" fill="none" xmlns="http://www.w3.org/2000/svg">
<path d="M15 10.15V1C15 0.734784 14.8946 0.48043 14.7071 0.292893C14.5196 0.105357 14.2652 0 14 0C13.7348 0 13.4804 0.105357 13.2929 0.292893C13.1054 0.48043 13 0.734784 13 1V10.15C12.134 10.4015 11.3731 10.9275 10.832 11.649C10.2909 12.3704 9.99892 13.2482 10 14.15C10 16.2 11.52 19.95 14 19.95C16.48 19.95 18 16.2 18 14.15C18.0011 13.2482 17.7091 12.3704 17.168 11.649C16.6269 10.9275 15.866 10.4015 15 10.15ZM14 18C13.2 18 12 15.73 12 14.2C11.9755 13.6436 12.172 13.1 12.5467 12.6879C12.9213 12.2758 13.4438 12.0285 14 12C14.5562 12.0285 15.0787 12.2758 15.4533 12.6879C15.828 13.1 16.0245 13.6436 16 14.2C16 15.73 14.8 18 14 18ZM7 0C6.73478 0 6.48043 0.105357 6.29289 0.292893C6.10536 0.48043 6 0.734784 6 1V6.46L5 7.13V1C5 0.734784 4.89464 0.48043 4.70711 0.292893C4.51957 0.105357 4.26522 0 4 0C3.73478 0 3.48043 0.105357 3.29289 0.292893C3.10536 0.48043 3 0.734784 3 1V7.13L2 6.46V1C2 0.734784 1.89464 0.48043 1.70711 0.292893C1.51957 0.105357 1.26522 0 1 0C0.734784 0 0.48043 0.105357 0.292893 0.292893C0.105357 0.48043 0 0.734784 0 1V7C0.000852118 7.16471 0.0423752 7.32665 0.12088 7.47145C0.199384 7.61625 0.312439 7.73941 0.45 7.83L3 9.54V19C3 19.2652 3.10536 19.5196 3.29289 19.7071C3.48043 19.8946 3.73478 20 4 20C4.26522 20 4.51957 19.8946 4.70711 19.7071C4.89464 19.5196 5 19.2652 5 19V9.54L7.55 7.83C7.68756 7.73941 7.80062 7.61625 7.87912 7.47145C7.95763 7.32665 7.99915 7.16471 8 7V1C8 0.734784 7.89464 0.48043 7.70711 0.292893C7.51957 0.105357 7.26522 0 7 0Z" fill="black"/>
</svg>
